<svg width="12" height="12" viewBox="0 0 12 12" fill="none" xmlns="http://www.w3.org/2000/svg">
<path d="M5.89824 0.369141C3.74203 0.369141 1.98779 2.12338 1.98779 4.27959C1.98779 6.98971 5.90208 11.6191 5.90208 11.6191C5.90208 11.6191 9.80869 6.85643 9.80869 4.27959C9.80869 2.12338 8.05451 0.369141 5.89824 0.369141ZM7.0781 5.42457C6.75277 5.74984 6.32554 5.9125 5.89824 5.9125C5.47101 5.9125 5.04364 5.74984 4.71844 5.42457C4.06785 4.77404 4.06785 3.71551 4.71844 3.06491C5.03348 2.74974 5.45254 2.57616 5.89824 2.57616C6.34394 2.57616 6.76293 2.74981 7.0781 3.06491C7.7287 3.71551 7.7287 4.77404 7.0781 5.42457Z" fill="black"/>
</svg>
