<svg width="18" height="36" viewBox="0 0 18 36" fill="none" xmlns="http://www.w3.org/2000/svg">
<path fill-rule="evenodd" clip-rule="evenodd" d="M17.0854 35.7587C7.99252 35.0144 0.844957 27.4104 0.844956 18.1389C0.844955 8.86739 7.99252 1.26334 17.0854 0.519058L17.0854 6.41479L17.0854 0.520161C8.73791 1.45107 1.54943 8.86849 1.54943 18.14C1.54943 27.4115 8.52337 34.1531 17.0854 35.084L17.0854 35.7587ZM17.0854 34.406C0.750955 30.4681 0.878133 8.71721 17.0854 6.95478C12.5943 7.53673 8.93145 10.7524 7.70056 14.9994C7.70056 14.9994 7.12064 16.2128 7.12064 18.0586C7.12064 19.9044 7.71936 21.3424 7.71936 21.3424C8.96794 25.5574 12.6164 28.7444 17.0854 29.323L17.0854 34.406Z" fill="#B7B7B7"/>
</svg>
