<svg width="37" height="36" viewBox="0 0 37 36" fill="none" xmlns="http://www.w3.org/2000/svg">
<path fill-rule="evenodd" clip-rule="evenodd" d="M19.8973 0.530196C28.9901 1.27448 36.1377 8.87852 36.1377 18.15C36.1377 27.4215 28.9901 35.0256 19.8973 35.7699C28.6683 34.8666 34.9146 26.4398 34.9632 18.15C35.0052 11.0838 29.2301 2.85139 19.8973 1.88183C36.4772 4.36424 37.2569 28.5667 19.8973 29.8741V35.7688C28.2447 34.8379 35.4332 27.4204 35.4332 18.1489C35.4332 8.87742 28.4593 2.13581 19.8973 1.20491V0.530196ZM19.8973 1.88293C36.2317 5.82078 36.1045 27.5717 19.8973 29.3341C24.3884 28.7522 28.0512 25.5365 29.2821 21.2895H19.905V14.9465H29.2633C28.0147 10.7315 24.3663 7.54456 19.8973 6.96592V1.88293ZM17.0805 35.7798C7.9323 35.0907 0.723907 27.4613 0.723907 18.15C0.723907 8.83988 7.93009 1.21154 17.0772 0.521362C8.3072 1.42576 2.06318 9.8525 2.01341 18.1401C1.97139 25.2064 7.74651 33.4387 17.0794 34.4083V35.0841C8.51844 34.1532 1.5434 27.4116 1.5434 18.1401C1.5434 8.86969 8.72967 1.45227 17.0761 0.521362H17.0783V6.25697C-0.281374 7.56444 0.498301 31.9259 17.0783 34.4083V35.7798H17.0805ZM17.0805 6.79807C0.873206 8.56049 0.74492 30.4704 17.0805 34.4083V29.3485C11.479 28.6826 7.13603 23.9232 7.13603 18.15C7.13603 12.3769 11.479 7.61855 17.0805 6.95156V6.79807Z" fill="#387C43"/>
</svg>
