<svg width="12" height="13" viewBox="0 0 12 13" fill="none" xmlns="http://www.w3.org/2000/svg">
<g clip-path="url(#clip0_1_373)">
<path d="M11.6734 9.30679L9.99879 7.63215C9.40071 7.03407 8.38396 7.27333 8.14473 8.05081C7.9653 8.58911 7.36722 8.88815 6.82894 8.76851C5.63278 8.46947 4.01795 6.91445 3.71891 5.65848C3.53948 5.12018 3.89833 4.52209 4.43661 4.34269C5.21412 4.10346 5.45335 3.08671 4.85527 2.48863L3.18063 0.813994C2.70216 0.395335 1.98446 0.395335 1.5658 0.813994L0.429443 1.95035C-0.706917 3.14652 0.54906 6.31637 3.36006 9.12737C6.17105 11.9384 9.3409 13.2542 10.5371 12.058L11.6734 10.9216C12.0921 10.4431 12.0921 9.72545 11.6734 9.30679Z" fill="black"/>
</g>
<defs>
<clipPath id="clip0_1_373">
<rect width="12" height="12" fill="white" transform="translate(0 0.5)"/>
</clipPath>
</defs>
</svg>
