<svg width="31" height="31" viewBox="0 0 31 31" fill="none" xmlns="http://www.w3.org/2000/svg">
<g clip-path="url(#clip0_95_415)">
<g clip-path="url(#clip1_95_415)">
<path d="M24.9757 22.2549C23.5075 22.2549 22.3132 23.4508 22.3132 24.9214C22.3132 26.3925 23.5075 27.5892 24.9757 27.5892C26.4445 27.5892 27.6385 26.3925 27.6385 24.9214C27.6385 23.4508 26.4445 22.2549 24.9757 22.2549Z" fill="#F3AA3C"/>
<path d="M7.02175 22.2549C5.55286 22.2549 4.35852 23.4508 4.35852 24.9214C4.35852 26.3925 5.55286 27.5892 7.02175 27.5892C8.48983 27.5892 9.68417 26.3925 9.68417 24.9214C9.68427 23.4508 8.48993 22.2549 7.02175 22.2549Z" fill="#F3AA3C"/>
<path d="M26.478 11.0529C26.3375 10.6296 25.9413 10.3435 25.495 10.3435H24.2364V14.7706H27.7095L26.478 11.0529Z" fill="#F3AA3C"/>
<path d="M29.8142 16.427H24.2364V20.6622C24.4767 20.6209 24.7238 20.5978 24.9756 20.5978C27.2011 20.5978 29.0387 22.2917 29.27 24.4589H29.465C30.0364 24.4589 30.5 23.9953 30.5 23.4232V17.4006C30.5 16.9512 30.2136 16.5706 29.8142 16.427Z" fill="#F3AA3C"/>
<path d="M22.5403 5.4464C22.5403 4.87428 22.0767 4.41064 21.5051 4.41064H1.53505C0.963636 4.41064 0.5 4.87418 0.5 5.4464V23.4235C0.5 23.9956 0.963636 24.4592 1.53505 24.4592H2.72697C2.95838 22.2921 4.79586 20.5981 7.02181 20.5981C9.24696 20.5981 11.0841 22.2921 11.3155 24.4592H19.4898H20.6817C20.8211 23.1544 21.5424 22.0226 22.5803 21.3271L22.5403 5.4464Z" fill="#F3AA3C"/>
</g>
</g>
<defs>
<clipPath id="clip0_95_415">
<rect width="30" height="30" fill="white" transform="translate(0.5 0.5)"/>
</clipPath>
<clipPath id="clip1_95_415">
<rect width="30" height="30" fill="white" transform="translate(0.5 1)"/>
</clipPath>
</defs>
</svg>
