<svg width="31" height="31" viewBox="0 0 31 31" fill="none" xmlns="http://www.w3.org/2000/svg">
<g clip-path="url(#clip0_95_397)">
<g clip-path="url(#clip1_95_397)">
<path d="M15 17.0861C15.5999 17.0861 16.0862 16.5998 16.0862 16C16.0862 15.4001 15.5999 14.9138 15 14.9138C14.4002 14.9138 13.9139 15.4001 13.9139 16C13.9139 16.5998 14.4002 17.0861 15 17.0861Z" fill="#F3AA3C"/>
<path d="M29.6926 12.0631L29.3851 10.9157L27.3183 11.4695C27.3578 11.3079 27.3925 11.1464 27.4222 10.9858C27.8377 8.73544 27.2614 6.75007 25.7557 5.24425L24.9158 4.40432L23.4027 5.91739C23.3561 5.7575 23.3054 5.6004 23.2508 5.44651C22.4855 3.28983 20.9937 1.85858 18.9369 1.30743L17.7895 1L17.2356 3.0669C17.1154 2.95169 16.9929 2.84099 16.8687 2.73499C15.1275 1.24997 13.12 0.756329 11.0631 1.30743L9.91571 1.61485L10.4691 3.68032C9.457 3.43285 8.22047 3.32013 6.95345 3.65964C5.93414 3.93279 5.02262 4.46594 4.24419 5.24431L3.40438 6.08423L4.91739 7.59724C3.18513 8.10104 1.05181 9.28517 0.307426 12.0631L0 13.2105L2.0669 13.7644C1.95175 13.8846 1.84099 14.007 1.73499 14.1313C0.249969 15.8725 -0.243671 17.88 0.307426 19.9369L0.614852 21.0843L2.68175 20.5305C2.64218 20.6921 2.60748 20.8536 2.57783 21.0142C2.16232 23.2646 2.73855 25.25 4.24431 26.7558L5.08423 27.5957L6.5973 26.0827C6.64388 26.2426 6.69457 26.3997 6.74917 26.5536C7.51453 28.7102 9.00626 30.1415 11.0631 30.6926L12.2105 31.0001L12.7644 28.9332C12.8846 29.0484 13.0071 29.1591 13.1313 29.2651C14.8725 30.7501 16.88 31.2437 18.9369 30.6926L20.0843 30.3852L19.5309 28.3198C20.543 28.5673 21.7794 28.6799 23.0465 28.3404C24.0659 28.0673 24.9773 27.5341 25.7558 26.7558L26.5957 25.9158L25.0827 24.4028C26.8149 23.8988 28.9484 22.7146 29.6926 19.937L30.0001 18.7896L27.9332 18.2358C28.0484 18.1155 28.1591 17.993 28.2651 17.8688C29.7501 16.1275 30.2437 14.12 29.6926 12.0631ZM16.8958 23.0754C12.9944 24.1208 8.96996 21.7972 7.92457 17.8959C6.87918 13.9945 9.20276 9.97002 13.1041 8.92463C17.0055 7.87924 21.03 10.2028 22.0754 14.1042C23.1208 18.0055 20.7972 22.03 16.8958 23.0754Z" fill="#F3AA3C"/>
<path d="M13.5654 10.6465C10.6135 11.4375 8.85536 14.4827 9.64633 17.4347C10.4373 20.3866 13.4825 22.1447 16.4345 21.3538C19.3865 20.5628 21.1446 17.5176 20.3536 14.5656C19.5626 11.6136 16.5174 9.85554 13.5654 10.6465ZM15.7424 18.7711C14.2145 19.1805 12.6384 18.2705 12.229 16.7426C11.8196 15.2147 12.7296 13.6386 14.2575 13.2292C15.7854 12.8198 17.3615 13.7297 17.7709 15.2577C18.1803 16.7856 17.2704 18.3617 15.7424 18.7711Z" fill="#F3AA3C"/>
</g>
</g>
<defs>
<clipPath id="clip0_95_397">
<rect width="30" height="30" fill="white" transform="translate(0.5 0.5)"/>
</clipPath>
<clipPath id="clip1_95_397">
<rect width="30" height="30" fill="white" transform="translate(0 1)"/>
</clipPath>
</defs>
</svg>
