<svg width="31" height="31" viewBox="0 0 31 31" fill="none" xmlns="http://www.w3.org/2000/svg">
<g clip-path="url(#clip0_95_369)">
<g clip-path="url(#clip1_95_369)">
<path d="M15.5 27.5366V30.5347L30.5 20.5347V17.5366L15.5 27.5366Z" fill="#F3AA3C"/>
<path d="M18.5521 1H16.198L1.73369 10.6428H4.08787L18.5521 1Z" fill="#F3AA3C"/>
<path d="M4.7858 26.2491L19.7858 16.2491V1.46533L4.7858 11.4654V26.2491Z" fill="#F3AA3C"/>
<path d="M4.24924 27.7856C4.18566 27.7842 4.12279 27.7716 4.06367 27.7481C4.05172 27.7437 4.03994 27.7402 4.0284 27.7348C3.97379 27.7102 3.92381 27.6765 3.88051 27.6352C3.87201 27.627 3.86568 27.6176 3.85771 27.6088C3.83832 27.5897 3.82045 27.5691 3.80428 27.5472C3.7949 27.5332 3.79373 27.5169 3.78588 27.5023C3.75248 27.4387 3.73145 27.3694 3.72395 27.2979C3.72242 27.2813 3.71428 27.267 3.71428 27.2501V11.7144H0.5V31.0001H14.4286V27.7858H4.25L4.24924 27.7856Z" fill="#F3AA3C"/>
<path d="M20.4836 17.0713L6.01924 26.7141H14.802L29.2663 17.0713H20.4836Z" fill="#F3AA3C"/>
</g>
</g>
<defs>
<clipPath id="clip0_95_369">
<rect width="30" height="30" fill="white" transform="translate(0.5 0.5)"/>
</clipPath>
<clipPath id="clip1_95_369">
<rect width="30" height="30" fill="white" transform="translate(0.5 1)"/>
</clipPath>
</defs>
</svg>
