<svg width="31" height="31" viewBox="0 0 31 31" fill="none" xmlns="http://www.w3.org/2000/svg">
<g clip-path="url(#clip0_95_443)">
<g clip-path="url(#clip1_95_443)">
<path d="M17.8125 1H3.4375C1.5375 1 0 2.5375 0 4.4375V23.8125C0 25.7125 1.5375 27.25 3.4375 27.25H12.6625L12.9375 25.7125C13.0625 25.0125 13.3875 24.3875 13.8875 23.875L21.25 16.525V4.4375C21.25 2.5375 19.7125 1 17.8125 1V1ZM5 6H10C10.6875 6 11.25 6.5625 11.25 7.25C11.25 7.9375 10.6875 8.5 10 8.5H5C4.3125 8.5 3.75 7.9375 3.75 7.25C3.75 6.5625 4.3125 6 5 6ZM11.25 18.5H5C4.3125 18.5 3.75 17.9375 3.75 17.25C3.75 16.5625 4.3125 16 5 16H11.25C11.9375 16 12.5 16.5625 12.5 17.25C12.5 17.9375 11.9375 18.5 11.25 18.5ZM16.25 13.5H5C4.3125 13.5 3.75 12.9375 3.75 12.25C3.75 11.5625 4.3125 11 5 11H16.25C16.9375 11 17.5 11.5625 17.5 12.25C17.5 12.9375 16.9375 13.5 16.25 13.5Z" fill="#F3AA3C"/>
<path d="M15.6601 30.9999C15.4138 30.9999 15.1738 30.9024 14.9976 30.7249C14.7813 30.5086 14.6838 30.2011 14.7376 29.8986L15.4001 26.1424C15.4326 25.9536 15.5251 25.7787 15.6601 25.6424L24.9414 16.3624C26.0814 15.2199 27.2014 15.5287 27.8139 16.1412L29.3601 17.6874C30.2139 18.5399 30.2139 19.9274 29.3601 20.7812L20.0789 30.0624C19.9439 30.1986 19.7689 30.2899 19.5789 30.3224L15.8226 30.9849C15.7688 30.9949 15.7138 30.9999 15.6601 30.9999ZM19.4164 29.3999H19.4289H19.4164Z" fill="#F3AA3C"/>
</g>
</g>
<defs>
<clipPath id="clip0_95_443">
<rect width="30" height="30" fill="white" transform="translate(0.5 0.5)"/>
</clipPath>
<clipPath id="clip1_95_443">
<rect width="30" height="30" fill="white" transform="translate(0 1)"/>
</clipPath>
</defs>
</svg>
