<svg width="30" height="30" viewBox="0 0 30 30" fill="none" xmlns="http://www.w3.org/2000/svg">
<g clip-path="url(#clip0_95_335)">
<path d="M29.8788 13.1202C29.6825 11.6064 28.1063 10.5702 26.5975 11.1352C26.0325 11.3489 25.3525 11.0314 25.0975 10.4614C24.7925 9.78145 24.4188 9.13018 23.9838 8.5252C23.5963 7.98643 23.67 7.28143 24.1513 6.88393C24.7263 6.41143 25.0475 5.7127 25.0325 4.96891C25.0175 4.21264 24.6613 3.51643 24.055 3.05641C23.0575 2.30143 21.97 1.67266 20.8213 1.18891C20.5113 1.05889 20.1863 0.992676 19.855 0.992676C18.6575 0.992676 17.6475 1.84393 17.4525 3.01645C17.35 3.63268 16.7663 4.05145 16.1088 3.9802C15.3787 3.90268 14.6188 3.90268 13.89 3.9802C13.235 4.05145 12.6488 3.63268 12.5463 3.01645C12.3513 1.84393 11.3413 0.992676 10.1437 0.992676C9.81252 0.992676 9.4875 1.05895 9.17877 1.18891C8.02875 1.67266 6.94125 2.30014 5.94375 3.05641C5.33877 3.51643 4.98252 4.21264 4.96752 4.96768C4.95252 5.7127 5.27379 6.4102 5.84877 6.88516C6.33129 7.28143 6.40254 7.98643 6.01629 8.52391C5.58129 9.12889 5.20629 9.78016 4.90131 10.4601C4.64631 11.0301 4.01631 11.3651 3.38754 11.1289C3.11256 11.0264 2.82627 10.9739 2.53629 10.9739C1.31631 10.9739 0.278789 11.8964 0.120059 13.1201C0.04125 13.7402 0 14.3739 0 15.0002C0 15.6264 0.04125 16.2602 0.12123 16.8801C0.31623 18.3926 1.89123 19.4289 3.40248 18.8651C3.96621 18.6514 4.64748 18.9689 4.90248 19.5389C5.20746 20.2189 5.58123 20.8701 6.01623 21.4751C6.40371 22.0139 6.33 22.7189 5.84871 23.1164C5.27373 23.5889 4.95246 24.2876 4.96746 25.0314C4.98246 25.7877 5.33871 26.4839 5.94498 26.9439C6.94248 27.6989 8.02998 28.3277 9.17871 28.8114C9.48873 28.9414 9.81369 29.0076 10.145 29.0076C11.3425 29.0076 12.3525 28.1564 12.5475 26.9839C12.65 26.3676 13.235 25.9551 13.8912 26.0201C14.62 26.0976 15.38 26.0976 16.11 26.0201C16.7675 25.9539 17.3513 26.3676 17.4537 26.9839C17.6487 28.1564 18.6587 29.0064 19.8563 29.0076C20.1875 29.0076 20.5125 28.9414 20.8212 28.8114C21.97 28.3277 23.0588 27.7002 24.055 26.9439C24.6599 26.4839 25.0175 25.7877 25.0325 25.0326C25.0475 24.2876 24.7262 23.5901 24.1512 23.1152C23.6687 22.7189 23.5975 22.0139 23.9837 21.4764C24.4187 20.8714 24.7937 20.2202 25.0987 19.5402C25.3537 18.9689 25.9849 18.6352 26.6125 18.8714C26.8874 18.9752 27.1737 19.0277 27.4637 19.0277C28.6837 19.0277 29.7212 18.1052 29.8799 16.8815C29.9587 16.2539 30 15.6227 30 15.0002C30 14.3777 29.9587 13.7464 29.8788 13.1202ZM15 20.0001C12.2425 20.0001 10 17.7576 10 15.0002C10 12.2427 12.2425 10.0002 15 10.0002C17.7575 10.0002 20 12.2427 20 15.0002C20 17.7576 17.7575 20.0001 15 20.0001Z" fill="#F5BB63"/>
</g>
<defs>
<clipPath id="clip0_95_335">
<rect width="30" height="30" fill="white"/>
</clipPath>
</defs>
</svg>
