<svg width="31" height="31" viewBox="0 0 31 31" fill="none" xmlns="http://www.w3.org/2000/svg">
<g clip-path="url(#clip0_95_349)">
<g clip-path="url(#clip1_95_349)">
<path d="M15.9375 1C13.9986 1 12.4219 2.5767 12.4219 4.51562C12.4219 6.45455 13.9986 8.03125 15.9375 8.03125C17.8764 8.03125 19.4531 6.45455 19.4531 4.51562C19.4531 2.5767 17.8764 1 15.9375 1Z" fill="#F3AA3C"/>
<path d="M28.2422 14.3008V15.1797C28.2422 16.267 27.2889 17.122 26.0937 16.8762C24.9223 12.8554 21.2103 9.90625 16.8164 9.90625H10.9443C10.6996 9.90625 10.4696 9.80412 10.3134 9.62647C9.48346 8.68744 8.28779 8.14844 7.03125 8.14844H4.39453C3.82471 8.14844 3.40658 8.68123 3.54053 9.23506L4.43057 12.9009C3.78 13.5807 3.23754 14.3446 2.8118 15.1797C1.05164 15.1797 0 16.4346 0 17.8164V20.4214C0 22.0901 1.29188 22.6993 2.6659 23.67C3.21006 24.8331 3.96967 25.8621 4.92756 26.7333C5.05717 26.85 5.27344 27.0964 5.27344 27.4285V29.5013C5.27344 30.3279 5.94551 31 6.77203 31H9.92719C10.749 31 11.4258 30.4439 11.4258 29.2422H16.8164C16.8164 30.4439 17.4932 31 18.315 31H21.4702C22.2967 31 22.9688 30.3279 22.9688 29.5014C22.9688 28.1731 22.8183 27.2682 23.7455 26.3171C25.4458 24.5689 26.4844 22.1849 26.4844 19.5742C26.4844 19.2762 26.4662 18.9824 26.4396 18.6912C26.4561 18.6914 26.4729 18.6962 26.4895 18.6962C28.4153 18.6962 30 17.1297 30 15.1797V14.3008C30 13.1422 28.2422 13.1375 28.2422 14.3008ZM6.15234 17.8164C5.66695 17.8164 5.27344 17.4229 5.27344 16.9375C5.27344 16.452 5.66695 16.0586 6.15234 16.0586C6.63773 16.0586 7.03125 16.452 7.03125 16.9375C7.03125 17.4229 6.63773 17.8164 6.15234 17.8164ZM16.8164 15.1797H12.8193C11.6607 15.1797 11.6559 13.4219 12.8193 13.4219H16.8164C17.975 13.4219 17.9797 15.1797 16.8164 15.1797Z" fill="#F3AA3C"/>
</g>
</g>
<defs>
<clipPath id="clip0_95_349">
<rect width="30" height="30" fill="white" transform="translate(0.5 0.5)"/>
</clipPath>
<clipPath id="clip1_95_349">
<rect width="30" height="30" fill="white" transform="translate(0 1)"/>
</clipPath>
</defs>
</svg>
