<svg width="31" height="31" viewBox="0 0 31 31" fill="none" xmlns="http://www.w3.org/2000/svg">
<g clip-path="url(#clip0_95_194)">
<path d="M25.6693 17.0149H23.3493C23.5858 17.6624 23.715 18.3611 23.715 19.0893V27.8579C23.715 28.1616 23.6621 28.453 23.566 28.7241H27.4015C28.8343 28.7241 29.9999 27.5584 29.9999 26.1257V21.3455C30 18.9576 28.0573 17.0149 25.6693 17.0149Z" fill="#F3AA3C"/>
<path d="M6.28507 19.0893C6.28507 18.361 6.41427 17.6624 6.65075 17.0149H4.33067C1.94274 17.0149 0 18.9576 0 21.3456V26.1257C0 27.5584 1.16561 28.7241 2.5984 28.7241H6.43407C6.33792 28.4529 6.28507 28.1616 6.28507 27.8579V19.0893Z" fill="#F3AA3C"/>
<path d="M17.6521 14.7588H12.348C9.9601 14.7588 8.01736 16.7015 8.01736 19.0895V27.858C8.01736 28.3363 8.40514 28.7242 8.8835 28.7242H21.1166C21.595 28.7242 21.9827 28.3364 21.9827 27.858V19.0895C21.9827 16.7015 20.04 14.7588 17.6521 14.7588Z" fill="#F3AA3C"/>
<path d="M15 3.27563C12.1282 3.27563 9.79185 5.61201 9.79185 8.48387C9.79185 10.4318 10.867 12.1331 12.4548 13.0263C13.2079 13.4499 14.0761 13.692 15 13.692C15.9239 13.692 16.7922 13.4499 17.5453 13.0263C19.1331 12.1331 20.2082 10.4318 20.2082 8.48387C20.2082 5.61206 17.8718 3.27563 15 3.27563Z" fill="#F3AA3C"/>
<path d="M5.85445 8.13037C3.70669 8.13037 1.95942 9.87764 1.95942 12.0254C1.95942 14.1732 3.70669 15.9204 5.85445 15.9204C6.39925 15.9204 6.91804 15.8076 7.38931 15.6047C8.20412 15.2539 8.87596 14.6329 9.29168 13.8551C9.58348 13.3092 9.74947 12.6864 9.74947 12.0254C9.74947 9.8777 8.0022 8.13037 5.85445 8.13037Z" fill="#F3AA3C"/>
<path d="M24.1456 8.13037C21.9978 8.13037 20.2505 9.87764 20.2505 12.0254C20.2505 12.6865 20.4165 13.3092 20.7083 13.8551C21.1241 14.633 21.7959 15.254 22.6107 15.6047C23.082 15.8076 23.6008 15.9204 24.1456 15.9204C26.2933 15.9204 28.0406 14.1732 28.0406 12.0254C28.0406 9.87764 26.2933 8.13037 24.1456 8.13037Z" fill="#F3AA3C"/>
</g>
<defs>
<clipPath id="clip0_95_194">
<rect width="30" height="30" fill="white" transform="translate(0.5 0.5)"/>
</clipPath>
</defs>
</svg>
