<svg width="31" height="31" viewBox="0 0 31 31" fill="none" xmlns="http://www.w3.org/2000/svg">
<g clip-path="url(#clip0_95_303)">
<g clip-path="url(#clip1_95_303)">
<path d="M28.0052 16.3887C27.8844 16.1417 27.8844 15.8585 28.0052 15.6115L29.1241 13.3226C29.747 12.0481 29.2534 10.5291 28.0003 9.86424L25.7498 8.6701C25.507 8.54132 25.3405 8.3121 25.293 8.04146L24.8528 5.53196C24.6077 4.13474 23.3153 3.19584 21.911 3.39453L19.3883 3.75136C19.1161 3.7898 18.8468 3.70226 18.6493 3.51119L16.8182 1.73979C15.7986 0.753432 14.2014 0.753373 13.1818 1.73979L11.3507 3.51136C11.1531 3.7025 10.8839 3.78986 10.6116 3.75154L8.08902 3.39471C6.68424 3.1959 5.39226 4.13492 5.14716 5.53213L4.70701 8.04151C4.65949 8.31222 4.49302 8.54137 4.25027 8.67022L1.9997 9.86436C0.746621 10.5292 0.25303 12.0483 0.875995 13.3228L1.99484 15.6117C2.11554 15.8586 2.11554 16.1419 1.99484 16.3888L0.875936 18.6777C0.252971 19.9521 0.746562 21.4712 1.99964 22.136L4.25021 23.3302C4.49302 23.459 4.65949 23.6882 4.70701 23.9588L5.14716 26.4683C5.37029 27.7403 6.46094 28.6323 7.71443 28.6322C7.83789 28.6322 7.96316 28.6235 8.08908 28.6057L10.6117 28.2489C10.8837 28.2102 11.1532 28.298 11.3507 28.489L13.1818 30.2604C13.6917 30.7537 14.3457 31.0002 15 31.0002C15.6541 31.0001 16.3085 30.7535 16.8181 30.2604L18.6493 28.489C18.8469 28.298 19.1162 28.2107 19.3883 28.2489L21.911 28.6057C23.3159 28.8044 24.6077 27.8655 24.8528 26.4683L25.293 23.9589C25.3406 23.6882 25.507 23.459 25.7498 23.3302L28.0003 22.136C29.2534 21.4712 29.747 19.9521 29.1241 18.6776L28.0052 16.3887ZM11.5394 8.2139C13.2885 8.2139 14.7116 9.63695 14.7116 11.3861C14.7116 13.1352 13.2885 14.5583 11.5394 14.5583C9.79028 14.5583 8.36722 13.1352 8.36722 11.3861C8.36722 9.63695 9.79028 8.2139 11.5394 8.2139ZM9.90207 22.3214C9.73315 22.4904 9.51173 22.5748 9.29036 22.5748C9.06899 22.5748 8.84751 22.4904 8.67865 22.3214C8.3408 21.9836 8.3408 21.4358 8.67865 21.0979L20.0979 9.67873C20.4356 9.34088 20.9835 9.34088 21.3213 9.67873C21.6592 10.0166 21.6592 10.5644 21.3213 10.9022L9.90207 22.3214ZM18.4605 23.7864C16.7113 23.7864 15.2883 22.3633 15.2883 20.6142C15.2883 18.8651 16.7113 17.442 18.4605 17.442C20.2096 17.442 21.6327 18.8651 21.6327 20.6142C21.6327 22.3633 20.2096 23.7864 18.4605 23.7864Z" fill="#F3AA3C"/>
<path d="M18.4605 19.1721C17.6654 19.1721 17.0185 19.8189 17.0185 20.614C17.0185 21.409 17.6654 22.0559 18.4605 22.0559C19.2555 22.0559 19.9023 21.409 19.9023 20.614C19.9023 19.8189 19.2555 19.1721 18.4605 19.1721Z" fill="#F3AA3C"/>
<path d="M11.5394 9.94409C10.7444 9.94409 10.0976 10.5909 10.0976 11.386C10.0976 12.181 10.7444 12.8279 11.5394 12.8279C12.3345 12.8279 12.9814 12.1811 12.9814 11.386C12.9813 10.591 12.3345 9.94409 11.5394 9.94409Z" fill="#F3AA3C"/>
</g>
</g>
<defs>
<clipPath id="clip0_95_303">
<rect width="30" height="30" fill="white" transform="translate(0.5 0.5)"/>
</clipPath>
<clipPath id="clip1_95_303">
<rect width="30" height="30" fill="white" transform="translate(0 1)"/>
</clipPath>
</defs>
</svg>
