<svg width="30" height="30" viewBox="0 0 30 30" fill="none" xmlns="http://www.w3.org/2000/svg">
<g clip-path="url(#clip0_1_178)">
<path d="M21.7331 16.5578C21.4792 17.034 21.0115 17.327 20.5023 17.327H9.4946C8.98768 17.327 8.51845 17.034 8.2646 16.5578C8.01076 16.0832 8.01076 15.4955 8.2646 15.0194L11.0169 9.85628C11.27 9.38012 11.7385 9.08704 12.2469 9.08704H17.7492C18.2561 9.08704 18.7254 9.38012 18.9792 9.85628L21.7315 15.0194C21.9869 15.497 21.9869 16.0832 21.7331 16.5578ZM13.6561 24.4424L10.9046 19.2801C10.6508 18.804 10.1823 18.5109 9.6746 18.5109H4.17153C3.6646 18.5109 3.19537 18.804 2.9423 19.2801L0.189988 24.4424C-0.0638583 24.9186 -0.0638583 25.5063 0.189988 25.9809C0.443834 26.457 0.911526 26.7501 1.41999 26.7501H12.4261C12.9331 26.7501 13.4031 26.457 13.6561 25.9809C13.91 25.5063 13.91 24.9201 13.6561 24.4424ZM29.8092 24.4424L27.0569 19.2801C26.8031 18.804 26.3354 18.5109 25.8277 18.5109H20.3246C19.8177 18.5109 19.3477 18.804 19.0946 19.2801L16.3431 24.4424C16.0892 24.9186 16.0892 25.5063 16.3431 25.9809C16.5961 26.457 17.0646 26.7501 17.5723 26.7501H28.5792C29.0869 26.7501 29.5569 26.457 29.81 25.9809C30.0638 25.5063 30.0638 24.9201 29.8092 24.4424ZM24.7054 9.59089L24.2138 11.894L21.9092 12.3847L24.2138 12.8747L24.7054 15.1778L25.1961 12.8747L27.5008 12.3847L25.1961 11.894L24.7054 9.59089ZM6.83691 6.90397L6.34614 9.20628L4.04153 9.69705L6.34614 10.187L6.83691 12.4901L7.32768 10.187L9.6323 9.69705L7.32768 9.20628L6.83691 6.90397ZM18.5685 3.25012L18.0769 5.55243L15.7723 6.0432L18.0769 6.53397L18.5685 8.83704L19.0592 6.53397L21.3638 6.04397L19.0592 5.5532L18.5685 3.25012Z" fill="white"/>
</g>
<defs>
<clipPath id="clip0_1_178">
<rect width="30" height="30" fill="white"/>
</clipPath>
</defs>
</svg>
