<svg width="30" height="30" viewBox="0 0 30 30" fill="none" xmlns="http://www.w3.org/2000/svg">
<g clip-path="url(#clip0_1_291)">
<path d="M27.1875 7.5H26.471C24.9014 2.78479 20.8055 0 15 0C9.19447 0 5.09859 2.78479 3.52898 7.5H2.8125C1.77703 7.5 0.9375 8.33953 0.9375 9.375V15C0.9375 16.0355 1.77703 16.875 2.8125 16.875H3.35262C4.8699 23.6737 9.42732 30 15 30C20.5727 30 25.1301 23.6737 26.6474 16.875H27.1875C28.223 16.875 29.0625 16.0355 29.0625 15V9.375C29.0625 8.33953 28.223 7.5 27.1875 7.5ZM21.5625 15.9375H8.4375V8.4375H21.5625V15.9375Z" fill="white"/>
<path d="M16.875 9.375H15L11.25 15H13.125L16.875 9.375Z" fill="white"/>
<path d="M16.875 15L20.625 9.375H18.75L15 15H16.875Z" fill="white"/>
</g>
<defs>
<clipPath id="clip0_1_291">
<rect width="30" height="30" fill="white"/>
</clipPath>
</defs>
</svg>
