<svg width="30" height="30" viewBox="0 0 30 30" fill="none" xmlns="http://www.w3.org/2000/svg">
<path d="M15.3379 10.0342L13.6249 7.75029C13.5071 7.59279 13.3216 7.50004 13.1251 7.50004H11.2501V6.25006H11.8751C12.2205 6.25006 12.5001 5.97051 12.5001 5.62504V3.12502C12.5001 2.77955 12.2205 2.5 11.8751 2.5H9.375C9.02953 2.5 8.74998 2.77955 8.74998 3.12502V5.62504C8.74998 5.97051 9.02953 6.25006 9.375 6.25006H10V7.50004H8.12502C7.9285 7.50004 7.74293 7.59279 7.62516 7.75029L5.91223 10.0342C4.69412 10.2011 3.75 11.2369 3.75 12.5V27.5C3.75 28.8788 4.87119 30 6.25002 30H15C16.3788 30 17.5 28.8788 17.5 27.5V12.5C17.5 11.2369 16.5558 10.2011 15.3379 10.0342Z" fill="white"/>
<path d="M25.628 1.24998C25.9712 1.24998 26.25 0.97043 26.25 0.624961C26.25 0.279551 25.9712 0 25.628 0H25.6152C25.272 0 24.9999 0.279551 24.9999 0.62502C25 0.970488 25.2842 1.24998 25.628 1.24998Z" fill="white"/>
<path d="M25.628 7.5H25.6152C25.272 7.5 24.9999 7.77955 24.9999 8.12502C24.9999 8.47049 25.2842 8.75004 25.628 8.75004C25.9712 8.75004 26.25 8.47049 26.25 8.12502C26.25 7.77955 25.9712 7.5 25.628 7.5Z" fill="white"/>
<path d="M24.378 3.75H24.3653C24.0221 3.75 23.75 4.02955 23.75 4.37502C23.75 4.72049 24.0342 5.00004 24.378 5.00004C24.7212 5.00004 25 4.72049 25 4.37502C25 4.02955 24.7212 3.75 24.378 3.75Z" fill="white"/>
<path d="M21.878 1.25H21.8652C21.522 1.25 21.2499 1.52955 21.2499 1.87502C21.2499 2.22049 21.5342 2.50004 21.878 2.50004C22.2212 2.50004 22.5 2.22049 22.5 1.87502C22.5 1.52955 22.2212 1.25 21.878 1.25Z" fill="white"/>
<path d="M21.878 3.75H21.8652C21.522 3.75 21.2499 4.02955 21.2499 4.37502C21.2499 4.72049 21.5342 5.00004 21.878 5.00004C22.2212 5.00004 22.5 4.72049 22.5 4.37502C22.5 4.02955 22.2212 3.75 21.878 3.75Z" fill="white"/>
<path d="M21.878 6.25H21.8652C21.522 6.25 21.2499 6.52955 21.2499 6.87502C21.2499 7.22048 21.5342 7.50003 21.878 7.50003C22.2212 7.50003 22.5 7.22048 22.5 6.87502C22.5 6.52955 22.2212 6.25 21.878 6.25Z" fill="white"/>
<path d="M19.3781 5H19.3653C19.0221 5 18.75 5.27955 18.75 5.62502C18.75 5.97049 19.0342 6.25004 19.3781 6.25004C19.7212 6.25004 20 5.97049 20 5.62502C20 5.27955 19.7212 5 19.3781 5Z" fill="white"/>
<path d="M19.3781 2.5H19.3653C19.0221 2.5 18.75 2.77955 18.75 3.12502C18.75 3.47043 19.0342 3.74998 19.3781 3.74998C19.7212 3.74998 20 3.47043 20 3.12496C20 2.77955 19.7212 2.5 19.3781 2.5Z" fill="white"/>
<path d="M16.878 3.75H16.8653C16.5221 3.75 16.25 4.02955 16.25 4.37502C16.25 4.72049 16.5342 5.00004 16.878 5.00004C17.2212 5.00004 17.5 4.72049 17.5 4.37502C17.5 4.02955 17.2212 3.75 16.878 3.75Z" fill="white"/>
</svg>
