<svg width="30" height="30" viewBox="0 0 30 30" fill="none" xmlns="http://www.w3.org/2000/svg">
<g clip-path="url(#clip0_1_222)">
<g clip-path="url(#clip1_1_222)">
<path d="M29.3788 13.6201C29.1825 12.1063 27.6063 11.0701 26.0975 11.6351C25.5325 11.8488 24.8525 11.5313 24.5975 10.9613C24.2925 10.2813 23.9188 9.63006 23.4838 9.02507C23.0963 8.48631 23.17 7.7813 23.6513 7.3838C24.2263 6.9113 24.5475 6.21257 24.5325 5.46879C24.5175 4.71252 24.1613 4.0163 23.555 3.55628C22.5575 2.8013 21.47 2.17253 20.3213 1.68878C20.0113 1.55876 19.6863 1.49255 19.355 1.49255C18.1575 1.49255 17.1475 2.3438 16.9525 3.51632C16.85 4.13255 16.2663 4.55132 15.6088 4.48007C14.8787 4.40255 14.1188 4.40255 13.39 4.48007C12.735 4.55132 12.1488 4.13255 12.0463 3.51632C11.8513 2.3438 10.8413 1.49255 9.64375 1.49255C9.31252 1.49255 8.9875 1.55882 8.67877 1.68878C7.52875 2.17253 6.44125 2.80001 5.44375 3.55628C4.83877 4.0163 4.48252 4.71251 4.46752 5.46755C4.45252 6.21257 4.77379 6.91007 5.34877 7.38504C5.83129 7.7813 5.90254 8.4863 5.51629 9.02379C5.08129 9.62877 4.70629 10.28 4.40131 10.96C4.14631 11.53 3.51631 11.865 2.88754 11.6287C2.61256 11.5263 2.32627 11.4738 2.03629 11.4738C0.816309 11.4738 -0.221211 12.3963 -0.379941 13.62C-0.45875 14.24 -0.5 14.8738 -0.5 15.5C-0.5 16.1263 -0.45875 16.76 -0.37877 17.38C-0.18377 18.8925 1.39123 19.9288 2.90248 19.365C3.46621 19.1512 4.14748 19.4688 4.40248 20.0388C4.70746 20.7187 5.08123 21.37 5.51623 21.975C5.90371 22.5138 5.83 23.2188 5.34871 23.6163C4.77373 24.0888 4.45246 24.7875 4.46746 25.5313C4.48246 26.2876 4.83871 26.9838 5.44498 27.4438C6.44248 28.1988 7.52998 28.8275 8.67871 29.3113C8.98873 29.4413 9.31369 29.5075 9.64498 29.5075C10.8425 29.5075 11.8525 28.6563 12.0475 27.4837C12.15 26.8675 12.735 26.455 13.3912 26.52C14.12 26.5975 14.88 26.5975 15.61 26.52C16.2675 26.4537 16.8513 26.8675 16.9537 27.4837C17.1487 28.6563 18.1587 29.5062 19.3563 29.5075C19.6875 29.5075 20.0125 29.4412 20.3212 29.3113C21.47 28.8275 22.5588 28.2001 23.555 27.4438C24.1599 26.9838 24.5175 26.2876 24.5325 25.5325C24.5475 24.7875 24.2262 24.09 23.6512 23.615C23.1687 23.2188 23.0975 22.5138 23.4837 21.9763C23.9187 21.3713 24.2937 20.72 24.5987 20.0401C24.8537 19.4688 25.4849 19.1351 26.1125 19.3713C26.3874 19.4751 26.6737 19.5276 26.9637 19.5276C28.1837 19.5276 29.2212 18.6051 29.3799 17.3814C29.4587 16.7538 29.5 16.1225 29.5 15.5C29.5 14.8775 29.4587 14.2463 29.3788 13.6201ZM14.5 20.5C11.7425 20.5 9.50002 18.2575 9.50002 15.5C9.50002 12.7426 11.7425 10.5001 14.5 10.5001C17.2575 10.5001 19.5 12.7426 19.5 15.5C19.5 18.2575 17.2575 20.5 14.5 20.5Z" fill="white"/>
</g>
</g>
<defs>
<clipPath id="clip0_1_222">
<rect width="30" height="30" fill="white"/>
</clipPath>
<clipPath id="clip1_1_222">
<rect width="30" height="30" fill="white" transform="translate(-0.5 0.5)"/>
</clipPath>
</defs>
</svg>
