<svg width="30" height="30" viewBox="0 0 30 30" fill="none" xmlns="http://www.w3.org/2000/svg">
<g clip-path="url(#clip0_1_170)">
<path d="M26.1859 17.5647C25.8422 13.0905 23.7591 10.2868 21.9214 7.8126C20.2197 5.52205 18.75 3.54404 18.75 0.626193C18.75 0.391818 18.6188 0.177599 18.4106 0.0701965C18.2019 -0.0378504 17.951 -0.0201551 17.7612 0.117775C15.0012 2.09274 12.6984 5.42139 11.8939 8.5974C11.3355 10.8086 11.2616 13.2943 11.2512 14.9361C8.7024 14.3917 8.12502 10.5791 8.11893 10.5376C8.09022 10.3398 7.96939 10.1677 7.79361 10.0737C7.61602 9.98098 7.40725 9.97424 7.22719 10.0634C7.09354 10.128 3.94652 11.7271 3.76342 18.1115C3.75059 18.3239 3.75 18.537 3.75 18.7499C3.75 24.9525 8.79697 29.9992 15 29.9992C15.0086 29.9998 15.0177 30.001 15.025 29.9992C15.0275 29.9992 15.0299 29.9992 15.0329 29.9992C21.2207 29.9814 26.25 24.9415 26.25 18.7499C26.25 18.438 26.1859 17.5647 26.1859 17.5647ZM15 28.7493C12.9321 28.7493 11.25 26.9574 11.25 24.7548C11.25 24.6797 11.2494 24.604 11.2549 24.5113C11.2799 23.5824 11.4563 22.9483 11.6498 22.5265C12.0124 23.3053 12.6605 24.0212 13.7134 24.0212C14.0589 24.0212 14.3384 23.7417 14.3384 23.3963C14.3384 22.5064 14.3568 21.4799 14.5783 20.5534C14.7755 19.7319 15.2466 18.8579 15.8436 18.1573C16.1091 19.0667 16.6267 19.8027 17.1321 20.5211C17.8553 21.5488 18.603 22.6114 18.7342 24.4234C18.7421 24.5308 18.7501 24.6388 18.7501 24.7548C18.75 26.9573 17.0679 28.7493 15 28.7493Z" fill="white"/>
</g>
<defs>
<clipPath id="clip0_1_170">
<rect width="30" height="30" fill="white"/>
</clipPath>
</defs>
</svg>
