<svg width="30" height="30" viewBox="0 0 30 30" fill="none" xmlns="http://www.w3.org/2000/svg">
<g clip-path="url(#clip0_1_146)">
<path d="M15 16.086C15.5999 16.086 16.0862 15.5997 16.0862 14.9999C16.0862 14.4 15.5999 13.9137 15 13.9137C14.4001 13.9137 13.9139 14.4 13.9139 14.9999C13.9139 15.5997 14.4001 16.086 15 16.086Z" fill="white"/>
<path d="M29.6926 11.0631L29.3851 9.91571L27.3183 10.4695C27.3578 10.3079 27.3925 10.1464 27.4222 9.98582C27.8377 7.73544 27.2614 5.75007 25.7557 4.24425L24.9158 3.40432L23.4027 4.91739C23.3561 4.7575 23.3054 4.6004 23.2508 4.44651C22.4855 2.28983 20.9937 0.858582 18.9369 0.307426L17.7895 0L17.2356 2.0669C17.1154 1.95169 16.9929 1.84099 16.8687 1.73499C15.1275 0.249969 13.12 -0.243671 11.0631 0.307426L9.91571 0.614852L10.4691 2.68032C9.457 2.43285 8.22047 2.32013 6.95345 2.65964C5.93414 2.93279 5.02262 3.46594 4.24419 4.24431L3.40438 5.08423L4.91739 6.59724C3.18513 7.10104 1.05181 8.28517 0.307426 11.0631L0 12.2105L2.0669 12.7644C1.95175 12.8846 1.84099 13.007 1.73499 13.1313C0.249969 14.8725 -0.243671 16.88 0.307426 18.9369L0.614852 20.0843L2.68175 19.5305C2.64218 19.6921 2.60748 19.8536 2.57783 20.0142C2.16232 22.2646 2.73855 24.25 4.24431 25.7558L5.08423 26.5957L6.5973 25.0827C6.64388 25.2426 6.69457 25.3997 6.74917 25.5536C7.51453 27.7102 9.00626 29.1415 11.0631 29.6926L12.2105 30.0001L12.7644 27.9332C12.8846 28.0484 13.0071 28.1591 13.1313 28.2651C14.8725 29.7501 16.88 30.2437 18.9369 29.6926L20.0843 29.3852L19.5309 27.3198C20.543 27.5673 21.7794 27.6799 23.0465 27.3404C24.0659 27.0673 24.9773 26.5341 25.7558 25.7558L26.5957 24.9158L25.0827 23.4028C26.8149 22.8988 28.9484 21.7146 29.6926 18.937L30.0001 17.7896L27.9332 17.2358C28.0484 17.1155 28.1591 16.993 28.2651 16.8688C29.7501 15.1275 30.2437 13.12 29.6926 11.0631ZM16.8958 22.0754C12.9944 23.1208 8.96996 20.7972 7.92457 16.8959C6.87918 12.9945 9.20276 8.97002 13.1041 7.92463C17.0055 6.87924 21.03 9.20282 22.0754 13.1042C23.1208 17.0055 20.7972 21.03 16.8958 22.0754Z" fill="white"/>
<path d="M13.5655 9.64651C10.6135 10.4375 8.85538 13.4827 9.64634 16.4347C10.4373 19.3866 13.4825 21.1447 16.4345 20.3538C19.3865 19.5628 21.1446 16.5176 20.3536 13.5656C19.5626 10.6136 16.5174 8.85554 13.5655 9.64651ZM15.7425 17.7711C14.2145 18.1805 12.6384 17.2705 12.229 15.7426C11.8197 14.2147 12.7296 12.6386 14.2575 12.2292C15.7854 11.8198 17.3615 12.7297 17.7709 14.2577C18.1804 15.7856 17.2704 17.3617 15.7425 17.7711Z" fill="white"/>
</g>
<defs>
<clipPath id="clip0_1_146">
<rect width="30" height="30" fill="white"/>
</clipPath>
</defs>
</svg>
