<svg width="30" height="30" viewBox="0 0 30 30" fill="none" xmlns="http://www.w3.org/2000/svg">
<g clip-path="url(#clip0_1_155)">
<path d="M5.89287 24.375V21.6504L0.757538 26.7857H3.48215C4.81299 26.7843 5.89146 25.7058 5.89287 24.375Z" fill="white"/>
<path d="M21.8094 0H20.0555L7.65421 13.3928H9.40921L21.8094 0Z" fill="white"/>
<path d="M9.10717 24.3751V14.4644H6.96434V24.3751C6.96211 26.2973 5.40439 27.855 3.48217 27.8572H0V30.0001H16.0714V27.8572H12.5893C10.6671 27.855 9.1094 26.2973 9.10717 24.3751Z" fill="white"/>
<path d="M29.2423 13.3927H25.7142C25.6822 13.3894 25.6507 13.383 25.62 13.3737C23.8478 13.1862 22.5021 11.6926 22.4998 9.91056V0.830933L10.1785 14.1381V24.3749C10.1799 25.7057 11.2584 26.7842 12.5892 26.7856H16.3774L26.9332 15.702L29.2423 13.3927ZM12.7017 24.9962C12.6003 25.096 12.4636 25.1518 12.3213 25.1515C12.1788 25.1529 12.0418 25.0969 11.941 24.9961C11.8402 24.8953 11.7843 24.7583 11.7856 24.6158C11.7866 24.4753 11.8423 24.3409 11.941 24.2409C12.1536 24.0372 12.489 24.0372 12.7016 24.2409C12.8001 24.341 12.8558 24.4754 12.8569 24.6158C12.8559 24.7578 12.8003 24.894 12.7017 24.9962ZM14.8519 22.7421L14.3162 23.3034C14.1119 23.5175 13.7727 23.5255 13.5586 23.3213C13.3445 23.117 13.3365 22.7778 13.5408 22.5637L14.0765 22.0024C14.2086 21.8639 14.4046 21.8064 14.5907 21.8516C14.7767 21.8968 14.9245 22.0378 14.9783 22.2215C15.0322 22.4051 14.984 22.6036 14.8519 22.7421ZM16.9947 20.4972L16.459 21.0585C16.2547 21.2726 15.9155 21.2806 15.7014 21.0764C15.4873 20.8721 15.4794 20.5329 15.6836 20.3188L16.2193 19.7575C16.4236 19.5434 16.7628 19.5354 16.9769 19.7397C17.191 19.944 17.199 20.2831 16.9947 20.4972ZM19.1376 18.2524L18.6018 18.8137C18.3976 19.0278 18.0584 19.0358 17.8443 18.8315C17.6302 18.6273 17.6222 18.2881 17.8265 18.074L18.3622 17.5126C18.5664 17.2985 18.9056 17.2906 19.1197 17.4948C19.3339 17.6991 19.3419 18.0383 19.1376 18.2524ZM21.2804 16.0075L20.7447 16.5688C20.6126 16.7073 20.4166 16.7648 20.2306 16.7196C20.0445 16.6744 19.8968 16.5334 19.8429 16.3497C19.7891 16.166 19.8373 15.9675 19.9694 15.829L20.5051 15.2677C20.7094 15.0536 21.0486 15.0456 21.2627 15.2499C21.4767 15.4542 21.4847 15.7934 21.2804 16.0075ZM22.8802 14.3302C22.7803 14.4329 22.6432 14.4908 22.4999 14.4908C22.3566 14.4908 22.2195 14.4329 22.1196 14.3302C22.0188 14.2316 21.9627 14.0961 21.9642 13.9551C21.9651 13.813 22.0208 13.6768 22.1196 13.5748C22.3344 13.3765 22.6654 13.3765 22.8802 13.5748C22.9788 13.677 23.0345 13.8131 23.0356 13.9551C23.0368 14.0961 22.9808 14.2315 22.8802 14.3302Z" fill="white"/>
<path d="M27.7002 16.4501L17.1428 27.5357V29.1964L26.933 18.9165L30 15.8496V14.1503L27.7002 16.4501Z" fill="white"/>
</g>
<defs>
<clipPath id="clip0_1_155">
<rect width="30" height="30" fill="white"/>
</clipPath>
</defs>
</svg>
